<svg xmlns="http://www.w3.org/2000/svg" width="168" height="48" fill="none"><path fill="#555" d="M81 18.93C79.7 20.3 78.17 21 76.46 21c-1.7 0-3.22-.7-4.52-2.07-1.3-1.37-1.95-2.97-1.95-4.8V5h2.9v9.14c0 1.04.35 1.94 1.06 2.7.7.75 1.57 1.12 2.54 1.12s1.83-.37 2.54-1.12c.7-.76 1.06-1.66 1.06-2.7V5H83v9.14c-.06 1.85-.7 3.45-2 4.8zM95 16.45c0 1.26-.5 2.33-1.5 3.23-1 .9-2.17 1.32-3.53 1.32-1.2 0-2.27-.34-3.17-1.05-.9-.7-1.5-1.6-1.77-2.74l3.14-.75c.2 1.04.8 1.56 1.8 1.56.46 0 .9-.14 1.26-.45.37-.3.57-.7.57-1.14 0-.7-.6-1.28-1.77-1.77-.93-.4-1.7-.7-2.23-.95s-.9-.43-1.03-.53c-1.17-.8-1.77-1.97-1.77-3.5 0-1.27.5-2.34 1.47-3.27 1-.92 2.16-1.38 3.56-1.38 1.2 0 2.27.37 3.17 1.08.87.7 1.43 1.6 1.73 2.7l-3.16.77c-.24-1-.84-1.54-1.74-1.54-.46 0-.9.17-1.26.5-.37.35-.54.7-.54 1.15 0 .7.6 1.3 1.77 1.78.93.37 1.67.68 2.2.92.53.25.9.43 1.07.56 1.16.87 1.73 2.04 1.73 3.55zM97 3.06V0h2v3.06h-2zM97 21V5.12h2V21h-2zM111.9 21v-9.13c0-1.04-.38-1.94-1.14-2.7-.77-.75-1.7-1.13-2.74-1.13-1.06 0-1.98.38-2.75 1.13-.76.76-1.14 1.66-1.14 2.7V21H101v-9.13c0-1.82.7-3.42 2.1-4.8C104.5 5.7 106.14 5 107.98 5s3.48.7 4.88 2.07c1.4 1.38 2.14 3 2.14 4.8V21h-3.1zM144 16.45c0 1.26-.45 2.33-1.35 3.23-.9.9-1.95 1.32-3.18 1.32-1.08 0-2.04-.34-2.85-1.05-.8-.7-1.35-1.6-1.6-2.74l2.83-.75c.18 1.04.72 1.56 1.62 1.56.42 0 .8-.14 1.14-.45.34-.3.52-.7.52-1.14 0-.7-.54-1.28-1.6-1.77-.83-.4-1.52-.7-2-.95s-.8-.43-.93-.53c-1.06-.8-1.6-1.97-1.6-3.5 0-1.27.45-2.34 1.32-3.27.9-.92 1.95-1.38 3.2-1.38 1.1 0 2.05.37 2.86 1.08.78.7 1.3 1.6 1.56 2.7l-2.85.77c-.22-1-.76-1.54-1.57-1.54-.42 0-.8.17-1.14.5-.34.35-.5.7-.5 1.15 0 .7.55 1.3 1.6 1.78.84.37 1.5.68 1.98.92.48.25.8.43.96.56 1.02.87 1.56 2.04 1.56 3.55zM155 16.45c0 1.26-.45 2.33-1.35 3.23-.9.9-1.95 1.32-3.18 1.32-1.08 0-2.04-.34-2.85-1.05-.8-.7-1.35-1.6-1.6-2.74l2.83-.75c.18 1.04.72 1.56 1.62 1.56.42 0 .8-.14 1.14-.45.34-.3.52-.7.52-1.14 0-.7-.54-1.28-1.6-1.77-.83-.4-1.52-.7-2-.95s-.8-.43-.93-.53c-1.06-.8-1.6-1.97-1.6-3.5 0-1.27.45-2.34 1.32-3.27.9-.92 1.95-1.38 3.2-1.38 1.1 0 2.05.37 2.86 1.08.78.7 1.3 1.6 1.56 2.7l-2.85.77c-.22-1-.76-1.54-1.57-1.54-.42 0-.8.17-1.14.5-.34.35-.5.7-.5 1.15 0 .7.55 1.3 1.6 1.78.84.37 1.5.68 1.98.92.48.25.8.43.96.56 1.02.87 1.56 2.04 1.56 3.55zM121.8 16.9c.95.77 2 1.14 3.2 1.14 1.42 0 2.6-.5 3.54-1.54.92-1.02 1.4-2.25 1.4-3.7H133c0 2.25-.77 4.2-2.3 5.8-1.55 1.6-3.42 2.4-5.67 2.4-2.22 0-4.12-.77-5.7-2.3-1.56-1.55-2.33-3.43-2.33-5.65s.77-4.1 2.34-5.68C120.88 5.8 122.78 5 125 5c1.63 0 3.1.46 4.43 1.36 1.32.9 2.34 2.1 3.02 3.63l-9.7 6.28-1.7-2.5 7.1-4.6c-.97-.76-2.04-1.13-3.2-1.13-1.4 0-2.56.5-3.55 1.48-.95 1-1.45 2.16-1.45 3.55.03 1.57.7 2.68 1.85 3.82zM55.02 6.96V0H52v12.92c0 2.2.77 4.15 2.34 5.7C55.9 20.2 57.78 21 60 21c2.18 0 4.06-.78 5.63-2.37 1.57-1.6 2.37-3.5 2.37-5.7s-.77-4.1-2.28-5.72c-1.5-1.58-3.35-2.4-5.47-2.4-1.6 0-3.02.44-4.28 1.35v3.77c.15-.18.3-.37.5-.56.98-1 2.15-1.5 3.53-1.5 1.35 0 2.52.5 3.5 1.5 1 1 1.48 2.2 1.48 3.56 0 1.37-.5 2.6-1.47 3.6-.98 1-2.15 1.48-3.5 1.48-1.38 0-2.55-.5-3.54-1.5-.98-1-1.48-2.18-1.48-3.58l.04-5.96zM75 30.06V28c-1.53.06-2.94.72-4.1 1.9-1.26 1.3-1.9 2.8-1.9 4.44V43h2.02v-8.66c0-1.18.43-2.22 1.22-3.03.8-.77 1.72-1.18 2.76-1.24zM87.8 30.22C86.36 28.74 84.55 28 82.5 28s-3.83.74-5.3 2.22c-1.43 1.45-2.2 3.23-2.2 5.3 0 2.06.73 3.85 2.2 5.3 1.44 1.44 3.25 2.18 5.3 2.18s3.83-.74 5.3-2.2c1.43-1.43 2.2-3.22 2.2-5.28-.03-2.07-.77-3.85-2.2-5.3zm-1.44 9.18c-1.07 1.07-2.4 1.6-3.86 1.6-1.47 0-2.76-.56-3.83-1.6-1.07-1.08-1.62-2.38-1.62-3.88s.55-2.8 1.62-3.9C79.74 30.57 81.03 30 82.5 30c1.5 0 2.8.56 3.86 1.63 1.07 1.08 1.62 2.38 1.62 3.9 0 1.5-.55 2.8-1.62 3.87zM105.52 30.06c1 0 1.82.37 2.5 1.15.67.76.98 1.63.98 2.66V43h2v-9.14c0-1.56-.55-2.96-1.6-4.1-1.08-1.17-2.37-1.76-3.9-1.76-1.82 0-3.24.7-4.3 2.1l-.2.24-.2-.25c-1.06-1.38-2.5-2.1-4.3-2.1-1.5 0-2.82.6-3.9 1.75s-1.6 2.52-1.6 4.1V43h2.03v-9.14c0-1.03.34-1.9 1.02-2.65.67-.74 1.5-1.14 2.5-1.14 1.07 0 1.93.37 2.54 1.1.6.7.92 1.6.92 2.7V43h2.03v-9.14c0-1.1.3-2 .95-2.7.58-.76 1.45-1.1 2.52-1.1zM124.65 30.22C123.1 28.74 121.2 28 119 28c-2.2 0-4.08.74-5.65 2.22-1.53 1.45-2.35 3.23-2.35 5.3 0 2.06.78 3.85 2.35 5.3C114.9 42.25 116.8 43 119 43c2.2 0 4.08-.74 5.65-2.2 1.53-1.43 2.35-3.22 2.35-5.28-.03-2.07-.82-3.85-2.35-5.3zm-1.54 9.18c-1.13 1.07-2.53 1.6-4.1 1.6-1.57 0-2.94-.56-4.08-1.6-1.14-1.08-1.73-2.38-1.73-3.88s.58-2.8 1.72-3.9c1.14-1.06 2.5-1.62 4.08-1.62 1.6 0 2.97.56 4.1 1.63 1.16 1.08 1.75 2.38 1.75 3.9 0 1.5-.6 2.8-1.74 3.87zM152.65 30.22C151.1 28.74 149.2 28 147 28c-2.2 0-4.08.74-5.65 2.22-1.53 1.45-2.35 3.23-2.35 5.3 0 2.06.78 3.85 2.35 5.3C142.9 42.25 144.8 43 147 43c2.2 0 4.08-.74 5.65-2.2 1.53-1.43 2.35-3.22 2.35-5.28-.03-2.07-.82-3.85-2.35-5.3zm-1.54 9.18c-1.13 1.07-2.53 1.6-4.1 1.6-1.57 0-2.94-.56-4.08-1.6-1.14-1.08-1.73-2.38-1.73-3.88s.58-2.8 1.72-3.9c1.14-1.06 2.5-1.62 4.08-1.62 1.6 0 2.97.56 4.1 1.63 1.16 1.08 1.75 2.38 1.75 3.9 0 1.5-.6 2.8-1.74 3.87zM161.53 30.1c1.2 0 2.23.43 3.1 1.24.85.84 1.3 1.87 1.3 3.02V43H168v-8.64c0-1.65-.67-3.15-1.97-4.43-1.3-1.28-2.8-1.93-4.53-1.93-1.7 0-3.22.65-4.53 1.93-1.3 1.28-1.97 2.78-1.97 4.43V43h2.1v-8.64c0-1.18.45-2.2 1.28-3.02.9-.85 1.94-1.25 3.15-1.25zM139 28h-2v15h2V28zM139 23h-2v2h2v-2zM131.26 36.6v-6.4h2.33v-2.1h-2.34V23h-1.9v5.1H127v2.1h2.36v6.4c0 1.67.6 3.18 1.78 4.48 1.13 1.23 2.42 1.86 3.86 1.92v-2.08c-1-.06-1.87-.47-2.6-1.26-.77-.86-1.14-1.9-1.14-3.06zM54.86 35.22c0-1.45.52-2.7 1.5-3.73 1-1.04 2.2-1.58 3.6-1.58s2.6.54 3.6 1.57 1.52 2.27 1.52 3.72c0 1.45-.5 2.7-1.52 3.73-1 1.04-2.2 1.54-3.57 1.54-1.42 0-2.62-.54-3.62-1.55-.06-.06-.1-.1-.12-.15v2.25c1.15.92 2.47 1.36 3.98 1.36 1.86 0 3.47-.7 4.78-2.12 1.32-1.42 1.98-3.1 1.98-5.06 0-1.98-.7-3.7-2.06-5.1C63.56 28.73 61.9 28 60 28c-1.9 0-3.56.7-4.94 2.13-1.34 1.4-2.06 3.1-2.06 5.1V47h1.9V35.22h-.04zM41.74 0H6.26C2.8 0 0 2.8 0 6.26v35.48C0 45.2 2.8 48 6.26 48h35.48c3.44 0 6.26-2.8 6.26-6.26V6.26C48 2.82 45.2 0 41.74 0zm-5.68 38.42c-5.92 4.7-15.5 4.25-16 4.25s-2.4-.07-2.4-.07l1.7-3.93h2.9c7.26 0 10-2.36 11.82-3.88 2.4-1.96 5.77-7.64 5.77-11.95 0-5.33-4.84-6.32-7.32-6.32-2.48 0-7.23-.03-7.23-.03l3.17-7.32H16.12L6.02 32.8l-2.2-5 9.73-22.44s10.73 0 11.9 0c3.26 0 6.4.07 8.6.87 7.47 2.73 10.17 8.72 10.17 14.4 0 5.3-2.24 13.07-8.16 17.8zM20.7 32.46l4.04-9.76h1.5l-4.04 9.76h-1.5zM160.77 5.03v.5h-1.07V8h-.63V5.52H158v-.5h2.77zM164.33 8l-.12-1.76c0-.22 0-.52-.02-.83h-.03c-.1.3-.2.62-.28.9l-.57 1.64h-.67l-.58-1.7c-.06-.22-.15-.58-.25-.85h-.03c0 .26 0 .54-.03.8l-.12 1.77h-.64l.25-2.97h.97l.58 1.46c.06.22.12.44.2.74.1-.27.16-.52.26-.74L163.8 5h.96l.24 2.97-.67.03z"/></svg>